<?xml version="1.0"?>
<svg xmlns:rdf="http://www.w3.org/1999/02/22-rdf-syntax-ns#" xmlns="http://www.w3.org/2000/svg" xmlns:cc="http://creativecommons.org/ns#" xmlns:dc="http://purl.org/dc/elements/1.1/" xmlns:svg="http://www.w3.org/2000/svg" id="svg2709" viewBox="0 0 121.34 175.58" version="1.0">
  <g id="layer1" transform="translate(-336.47 -444.57)">
    <g id="g2662" stroke-linejoin="round" transform="translate(-52.171 127.14)" stroke-dashoffset="1.5" stroke="#000" stroke-linecap="round">
      <path id="path3388" stroke-width="2" fill="#fff" d="m424.52 351.54c-7.59 2.69-5.93 11.06 0.71 10.71l-0.71-10.71z"/>
      <path id="path3390" stroke-width="2" fill="#fff" d="m482.56 359.69c7.67-2.46 6.26-10.88-0.39-10.73l0.39 10.73z"/>
      <path id="path3392" stroke-width="2" fill="#fff" d="m425.59 354.75l-1.18 22.2c-0.44 6.6-0.88 7.46-1.32 10.66 14.58 3.58 30.53 2.31 49.59 0.47 4.69-0.45 7.91-1.78 11.84-2.97l-0.89-9.99-2.68-27.87-55.36 7.5z"/>
      <path id="path3394" stroke-width="2" fill="#fff" d="m444.87 387.61c-0.59 4.28-3.69 18.93-4.28 23.21 6.9 7.32 19.52 3.53 26.43-0.35-0.48-5.64-4.17-21.03-4.65-25.72l-17.5 2.86z"/>
      <path id="path3396" stroke-width="2" fill="#fff" d="m483.09 355.11c0.4 16.35-9.73 29.92-26.05 33.2-13.03 1.66-23.64-11.04-30.17-22.37-3.55-12.19-3.05-27.08 7.29-34.59 10.41-8.01 25.8-8.94 36.85-1.68 9.04 5.69 12.31 14.66 12.08 25.44z"/>
      <path id="path3398" stroke-width="9.2192" transform="matrix(.19497 0 0 .24138 394.5 242.7)" d="m315.71 452.36a1.7857 2.1429 0 1 1 -3.57 0 1.7857 2.1429 0 1 1 3.57 0z"/>
      <path id="path3400" stroke-width="2" fill="#fff" d="m425.23 348.68c7.18-1.34 18.23-4.18 24.51-8.22 4.59-2.96 11.07-6.57 15.13-10.71 6.14 7.44 8.98 12.45 17.86 17.14-1.82-30.7-30.45-34.35-47.44-21.45-6.91 5.25-10.14 12.17-10.06 23.24z"/>
      <path id="path3404" stroke-width="2" fill="#fff" d="m479.28 397.87l-15.27-0.92c-9.32 19.86-14.08 8.34-20.56 0-4.67-0.36-11.85 0.74-17.47 2.28-7.41 15.45-11.79 32.19-16.09 48.75h13.56l66.86-0.51c-4.76-35.73-4.48-31.11-11.03-49.6z"/>
      <path id="path3406" stroke-width="2" fill="#fff" d="m425.95 400.11z"/>
      <path id="path3408" stroke-width="2" d="m431.68 419.6l-5.73 27.29"/>
      <path id="path3410" stroke-width="1.6" fill="#fff" d="m451.66 371.18c6.34 10.53 12.09 7.33 15.71-1.07-4.69 1.45-10.07 1.52-15.71 1.07z"/>
      <path id="path3414" stroke-width="9.2192" transform="matrix(.19497 0 0 .24138 403.31 242.35)" d="m315.71 452.36a1.7857 2.1429 0 1 1 -3.57 0 1.7857 2.1429 0 1 1 3.57 0z"/>
      <path id="path3416" stroke-width="1.5" fill="#fff" d="m458.38 361.03c0.9 1.62 3.94 1.75 5.84-0.27"/>
      <path id="path3418" stroke-width="2" d="m471.4 418.88l2.34 20.73"/>
      <path id="path3412" stroke-width="2" fill="#fff" d="m408.5 434.22l82.8-0.03c6.05 14.02 14.98 34.87 17.44 39.91l-118.82 1.46 18.58-41.34z"/>
      <path id="path2527" stroke-width="2" fill="#fff" d="m389.64 475.58v16.43l118.57-0.72 0.77-17.14-119.34 1.43z"/>
      <path id="path2533" stroke-width="2" fill="#fff" d="m438.93 440.22l-8.57 29.29 42.14-0.72-6.43-29.28-27.14 0.71z"/>
      <path id="path2535" stroke-width="2" fill="#fff" d="m409.86 446.98l12.01 15.68 6.04 1.14-1.72-7.08-13-14.44-3.33 4.7z"/>
    </g>
  </g>
  <metadata>
    <rdf:RDF>
      <cc:Work>
        <dc:format>image/svg+xml</dc:format>
        <dc:type rdf:resource="http://purl.org/dc/dcmitype/StillImage"/>
        <cc:license rdf:resource="http://creativecommons.org/licenses/publicdomain/"/>
        <dc:publisher>
          <cc:Agent rdf:about="http://openclipart.org/">
            <dc:title>Openclipart</dc:title>
          </cc:Agent>
        </dc:publisher>
        <dc:title>&#xC9;l&#xE8;ve / student</dc:title>
        <dc:date>2010-04-23T01:32:39</dc:date>
        <dc:description>black and white, clip art, clipart, colouring book, desk, girl, outline, people, school, student, </dc:description>
        <dc:source>http://openclipart.org/detail/50293/&#xC9;l&#xE8;ve-/-student-by-lmproulx</dc:source>
        <dc:creator>
          <cc:Agent>
            <dc:title>lmproulx</dc:title>
          </cc:Agent>
        </dc:creator>
        <dc:subject>
          <rdf:Bag>
            <rdf:li>black and white</rdf:li>
            <rdf:li>clip art</rdf:li>
            <rdf:li>clipart</rdf:li>
            <rdf:li>colouring book</rdf:li>
            <rdf:li>desk</rdf:li>
            <rdf:li>girl</rdf:li>
            <rdf:li>outline</rdf:li>
            <rdf:li>people</rdf:li>
            <rdf:li>school</rdf:li>
            <rdf:li>student</rdf:li>
          </rdf:Bag>
        </dc:subject>
      </cc:Work>
      <cc:License rdf:about="http://creativecommons.org/licenses/publicdomain/">
        <cc:permits rdf:resource="http://creativecommons.org/ns#Reproduction"/>
        <cc:permits rdf:resource="http://creativecommons.org/ns#Distribution"/>
        <cc:permits rdf:resource="http://creativecommons.org/ns#DerivativeWorks"/>
      </cc:License>
    </rdf:RDF>
  </metadata>
</svg>
